PathFileType	4	(X/Y/Z)	C:/Users/beibeiliu/ov580/test_trc/User3\sequence.39_training_dense_left.trc
DataRate	CameraRate	NumFrames	NumMarkers	Units	OrigDataRate	OrigDataStartFrame	OrigNumFrames
120	120	15	19	mm	120	57	84
Frame#	Time	ThumbCMC			ThumbMCP			ThumbIP			ThumbTip			IndexMCP			IndexPIP			IndexTip			MiddleMCP			MiddlePIP			MiddleTip			RingMCP			RingPIP			RingTip			PinkyMCP			PinkyPIP			PinkyTip			BackHand1			BackHand2			BackHand3	
		X0	Y0	Z0	X1	Y1	Z1	X2	Y2	Z2	X3	Y3	Z3	X4	Y4	Z4	X5	Y5	Z5	X6	Y6	Z6	X7	Y7	Z7	X8	Y8	Z8	X9	Y9	Z9	X10	Y10	Z10	X11	Y11	Z11	X12	Y12	Z12	X13	Y13	Z13	X14	Y14	Z14	X15	Y15	Z15	X16	Y16	Z16	X17	Y17	Z17	X18	Y18	Z18	
56	0.466667	-187.839	-8.48178	33.3836	-183.395	15.3859	12.0831	-174.851	31.9266	-11.6173	-161.256	41.6014	-27.7913	-176.595	-33.5982	-37.6462	-168.609	-21.3194	-63.4717	-155.252	-5.99843	-79.8291	-160.713	-55.3796	-39.756	-148.7	-49.0751	-68.5073	-128.137	-33.5107	-90.2864	-141.871	-61.7168	-23.0972	-123.745	-58.6135	-51.6744	-108.238	-41.3135	-68.986	-124.126	-66.7422	-3.41687	-108.799	-68.25	-22.503	-86.9954	-59.8393	-40.4801	-157.585	-70.0027	21.5358	-164.064	-69.5687	55.0544	-187.606	-46.0278	28.3948	
57	0.475	-186.983	-10.7743	38.0493	-182.999	11.4072	15.1044	-171.483	26.6335	-11.4057	-158.681	35.6119	-26.962	-174.968	-33.3629	-39.1796	-165.043	-23.8222	-63.88	-151.643	-5.682	-80.2248	-158.656	-56.618	-38.6572	-149.581	-50.7854	-64.3687	-127.476	-30.9822	-90.0114	-140.172	-62.2486	-27.6802	-126.439	-58.3617	-51.8502	-109.749	-43.6218	-66.5721	-121.171	-67.7294	-3.65851	-103.166	-68.8441	-24.1311	-86.9946	-62.432	-40.1086	-155.703	-68.2001	25.0222	-165.717	-67.4477	52.6773	-186.35	-49.1319	31.5487	
58	0.483333	-190.14	-10.9598	39.1472	-179.384	7.4585	13.8512	-167.796	20.0803	-9.85249	-148.822	23.1408	-29.3886	-179.672	-38.9112	-34.1531	-171.249	-28.6761	-61.163	-153.739	-8.00154	-79.3434	-162.55	-59.4673	-34.3985	-151.371	-49.9808	-67.0454	-131.961	-28.8246	-86.6388	-143.537	-64.9992	-22.9412	-127.448	-57.631	-49.8243	-112.53	-39.23	-62.0496	-123.915	-70.7788	-3.92644	-110.962	-69.1019	-24.3106	-92.6391	-58.0088	-42.9055	-161.742	-69.717	23.324	-164.855	-70.5695	56.3807	-188.057	-53.2238	32.4181	
59	0.491667	-190.493	-13.0546	41.302	-174.931	0.881203	12.1594	-159.083	5.68225	-12.9636	-138.918	-0.549446	-29.2554	-190.568	-41.5938	-35.8681	-182.715	-27.7732	-62.0226	-165.886	-14.1366	-73.7698	-172.249	-64.1782	-36.137	-164.721	-53.9248	-63.2269	-140.097	-30.9405	-78.3438	-151.37	-67.4952	-26.0654	-137.06	-53.958	-49.8284	-117.092	-29.7041	-55.6323	-133.741	-73.2909	-3.63531	-118.245	-69.841	-29.6222	-107.012	-56.6606	-42.7071	-165.292	-76.4114	30.7711	-168.962	-75.5528	58.2203	-197.142	-53.983	35.7715	
60	0.5	-188.987	-11.4912	42.1665	-170.57	-3.68432	11.5732	-152.812	-5.59374	-18.9153	-138.082	-17.3013	-30.8401	-200.564	-40.128	-27.7189	-192.355	-29.6025	-57.342	-170.032	-10.8421	-72.6996	-190.358	-59.5711	-34.0455	-178.784	-52.1637	-61.2437	-152.602	-24.1115	-76.148	-165.211	-67.4691	-25.8262	-147.038	-55.005	-48.3283	-130.427	-30.9678	-50.6541	-149.655	-75.9307	-8.33533	-135.63	-74.1353	-31.1419	-121.525	-61.3674	-48.0043	-178.942	-74.9532	26.6436	-178.573	-72.4072	60.5513	-199.309	-52.708	39.6025	
61	0.508333	-180.607	-2.60229	40.9901	-159.898	2.612	10.1903	-144.518	-2.55909	-16.978	-131.475	-19.3301	-35.2388	-202.385	-28.228	-26.9851	-192.609	-17.2085	-57.0517	-171.604	-0.250498	-70.5783	-197.589	-47.6635	-34.9148	-184	-40.3493	-63.4851	-155.151	-20.463	-74.6694	-173.266	-62.5482	-25.1529	-157.01	-50.6201	-49.8466	-130.056	-31.9688	-49.0218	-159.522	-76.545	-12.0254	-148.736	-72.2154	-35.8212	-133.655	-57.9566	-49.6096	-185.798	-67.5278	26.2383	-183.634	-65.0064	56.8601	-205.979	-36.6667	42.8455	
62	0.516667	-169.276	4.80336	41.8584	-148.389	6.60728	7.77362	-134.591	1.13806	-14.9473	-124.72	-16.9479	-35.4464	-197.492	-12.5472	-30.4172	-187.402	-3.40481	-56.2133	-159.966	5.30011	-71.3898	-197.359	-34.9403	-33.1016	-185.529	-26.7907	-65.1712	-154.625	-18.8079	-78.8981	-176.836	-53.448	-28.4747	-161.834	-45.4537	-52.2839	-129.98	-31.0419	-53.1504	-165.142	-69.7525	-12.1419	-153.906	-70.2866	-36.9023	-134.772	-60.1545	-54.319	-189.374	-55.4924	30.5701	-184.874	-53.8644	56.9235	-199.221	-25.1754	41.3744	
63	0.525	-161.448	7.18252	39.6242	-139.51	12.0242	9.79106	-124.976	7.97429	-15.5234	-113.835	-8.15971	-34.7429	-189.213	-5.68927	-31.2119	-175.99	3.25459	-59.325	-151.596	11.7409	-73.3374	-191.224	-30.9476	-36.8719	-182.713	-24.2633	-65.1577	-153.061	-13.333	-85.1409	-174.322	-48.644	-27.0768	-158.077	-43.2763	-55.4234	-129.036	-34.4522	-60.9472	-163.047	-64.4017	-11.9033	-151.441	-70.1	-37.2232	-135.095	-59.3913	-57.0832	-184.936	-49.3488	26.539	-180.891	-55.3286	56.6701	-195.163	-19.7157	37.3368	
64	0.533333	-158.612	6.78834	36.8492	-133.335	16.8262	13.0435	-115.526	16.0858	-18.0524	-103.704	0.501861	-31.6544	-182.133	-4.79588	-35.884	-168.145	6.00056	-62.1264	-147.967	15.8597	-73.4135	-185.243	-27.7795	-38.6159	-173.704	-23.7918	-69.7704	-147.692	-14.5908	-91.0416	-166.338	-49.8544	-32.2456	-151.479	-44.5978	-57.1007	-123.326	-31.3134	-66.0303	-154.871	-62.2396	-16.0462	-143.766	-67.7653	-39.9259	-125.068	-64.377	-57.0662	-178.48	-50.8636	23.4348	-174.88	-52.0343	52.5557	-187.783	-18.7776	35.2724	
65	0.541667	-158.378	6.87595	37.9332	-133.222	14.6699	8.55952	-114.948	13.8952	-11.023	-101.514	0.515907	-30.5007	-181.271	-5.8741	-30.9785	-165.767	3.88815	-60.1671	-142.705	15.3182	-74.7975	-179.899	-28.546	-39.0206	-166.231	-25.4264	-68.4476	-141.819	-15.6637	-86.4443	-160.642	-44.304	-32.4854	-141.154	-39.3786	-55.7604	-113.615	-27.5058	-59.5622	-148.186	-61.8918	-18.3018	-133.873	-66.4729	-37.8832	-120.348	-55.5958	-57.2716	-173.554	-51.6566	25.2784	-173.295	-56.632	50.3057	-187.098	-24.4592	36.2537	
66	0.55	-161.954	7.7095	38.7088	-137.727	16.5823	11.2171	-119.359	10.4032	-14.4188	-104.52	-2.84089	-31.9068	-183.812	-7.22366	-29.6642	-171.048	3.44126	-58.3409	-147.688	16.2117	-72.353	-178.163	-33.0847	-38.7952	-168.439	-23.8891	-64.9433	-133.883	-10.2194	-79.6593	-156.904	-45.6306	-30.9535	-135.75	-39.7786	-51.9332	-112.574	-21.9008	-51.5608	-145.849	-62.7773	-11.9864	-133.443	-61.5311	-35.5927	-112.881	-53.997	-51.1568	-175.041	-52.8746	26.4489	-171.606	-55.6971	51.927	-189.808	-25.558	37.5934	
67	0.558333	-166.115	7.66642	38.4468	-141.116	14.3501	11.4566	-123.001	9.94239	-16.6105	-110.39	-10.5401	-30.4053	-185.434	-11.2418	-30.2791	-175.676	1.8249	-56.9403	-154.379	15.1987	-72.205	-178.643	-35.1172	-36.3174	-165.224	-26.5231	-65.5235	-134.746	-12.1135	-74.7814	-158.007	-46.8197	-29.3249	-134.882	-36.4069	-49.8998	-111.83	-18.0124	-46.0115	-145.892	-63.7474	-15.7858	-131.577	-61.3675	-37.223	-113.53	-46.3257	-50.8529	-176.831	-55.6161	26.4695	-173.616	-54.7074	52.0065	-191.372	-26.4358	37.2239	
68	0.566667	-162.426	9.78398	40.3745	-138.388	15.6247	11.0257	-124.206	8.3005	-13.2975	-110.319	-8.25312	-32.3672	-185.648	-5.84515	-32.0814	-172.948	4.34145	-60.7389	-151.205	11.4629	-73.0368	-182.666	-32.346	-36.0091	-170.007	-26.3591	-63.7796	-139.194	-10.245	-75.679	-163.769	-44.1013	-27.7231	-141.596	-37.9505	-50.7871	-114.277	-25.4687	-48.8505	-150.623	-64.506	-14.0626	-139.72	-60.2542	-38.2001	-122.524	-47.6192	-51.9747	-178.745	-51.371	23.5204	-176.367	-55.2827	53.7371	-189.367	-23.2176	36.8187	
69	0.575	-148.592	8.79163	43.4475	-126.923	11.5889	11.0647	-113.855	6.50617	-15.6401	-104.68	-8.65518	-33.9295	-177.39	8.37113	-29.6511	-162.861	11.255	-58.2548	-140.695	12.3035	-72.3765	-183.675	-19.4743	-36.5465	-174.283	-16.7231	-63.3734	-140.524	-10.8726	-81.6378	-169.876	-39.7348	-28.238	-154.371	-39.1241	-53.1728	-123.658	-31.1236	-57.4137	-163.644	-59.2346	-15.3868	-154.859	-57.0916	-39.1788	-136.421	-54.6286	-54.9027	-182.364	-43.3979	28.6082	-178.153	-47.0513	58.1631	-183.088	-11.4557	40.1636	
70	0.583333	-127.231	6.63006	44.4688	-110.647	0.930721	15.7749	-96.5004	-1.86608	-12.9271	-92.9509	-13.9733	-35.3783	-158.883	17.1236	-26.771	-148.632	19.461	-52.3148	-127.081	6.82937	-74.983	-175.79	-1.61966	-29.9307	-171.46	-3.44008	-60.4202	-145.901	-7.11913	-85.3352	-177.158	-27.8063	-24.5972	-164.355	-29.3834	-55.7786	-136.73	-39.6906	-68.7488	-177.843	-49.6297	-14.1502	-174.223	-54.4059	-36.4818	-155.296	-52.997	-58.8094	-183.283	-29.7982	27.9665	-177.553	-30.5641	58.6396	-168.231	-0.200388	43.2724	
